HIERARCHY
ROOT SpineBase
{
  OFFSET 0.000000 0.000000 0.000000
  CHANNELS 6 Xposition Yposition Zposition Zrotation Xrotation Yrotation
  JOINT SpineMid
  {
    OFFSET 0.000000 31.006037 0.000000
    CHANNELS 3 Zrotation Xrotation Yrotation
    JOINT SpineShoulder
    {
      OFFSET -0.010744 23.045168 -0.910837
      CHANNELS 3 Zrotation Xrotation Yrotation
      JOINT Neck
      {
        OFFSET -0.010047 7.642557 -0.667920
        CHANNELS 3 Zrotation Xrotation Yrotation
        JOINT Head
        {
          OFFSET -2.024104 12.253816 1.199985
          CHANNELS 3 Zrotation Xrotation Yrotation
          End Site
          {
            OFFSET 0 0 0
          }
        }
      }
      JOINT ShoulderLeft
      {
        OFFSET -17.283508 -4.244736 6.991904
        CHANNELS 3 Zrotation Xrotation Yrotation
        JOINT ElbowLeft
        {
          OFFSET -2.151121 -28.516458 -1.244898
          CHANNELS 3 Zrotation Xrotation Yrotation
          JOINT WristLeft
          {
            OFFSET -0.189568 -20.910023 -8.155547
            CHANNELS 3 Zrotation Xrotation Yrotation
            JOINT HandLeft
            {
              OFFSET 1.254731 -1.640412 -0.943214
              CHANNELS 3 Zrotation Xrotation Yrotation
              JOINT HandTipLeft
              {
                OFFSET 0.188769 -5.679255 -2.002633
                CHANNELS 3 Zrotation Xrotation Yrotation
                End Site
                {
                  OFFSET 0 0 0
                }
              }
              JOINT ThumbLeft
              {
                OFFSET -3.689253 -0.434831 -2.195935
                CHANNELS 3 Zrotation Xrotation Yrotation
                End Site
                {
                  OFFSET 0 0 0
                }
              }
            }
          }
        }
      }
      JOINT ShoulderRight
      {
        OFFSET 14.720702 -2.003236 -7.229023
        CHANNELS 3 Zrotation Xrotation Yrotation
        JOINT ElbowRight
        {
          OFFSET 9.581259 -21.527275 -1.638408
          CHANNELS 3 Zrotation Xrotation Yrotation
          JOINT WristRight
          {
            OFFSET -9.209261 -19.082225 -7.785767
            CHANNELS 3 Zrotation Xrotation Yrotation
            JOINT HandRight
            {
              OFFSET -6.536653 -3.298527 -0.452083
              CHANNELS 3 Zrotation Xrotation Yrotation
              JOINT HandTipRight
              {
                OFFSET -4.466421 -3.995404 -4.911347
                CHANNELS 3 Zrotation Xrotation Yrotation
                End Site
                {
                  OFFSET 0 0 0
                }
              }
              JOINT ThumbRight
              {
                OFFSET 2.539686 -4.711212 1.125984
                CHANNELS 3 Zrotation Xrotation Yrotation
                End Site
                {
                  OFFSET 0 0 0
                }
              }
            }
          }
        }
      }
    }
  }
  JOINT HipLeft
  {
    OFFSET -6.593568 0.792958 -1.149342
    CHANNELS 3 Zrotation Xrotation Yrotation
    JOINT KneeLeft
    {
      OFFSET -4.281058 -28.020229 -2.337880
      CHANNELS 3 Zrotation Xrotation Yrotation
      JOINT AnkleLeft
      {
        OFFSET -1.496540 -30.885116 0.963449
        CHANNELS 3 Zrotation Xrotation Yrotation
        JOINT FootLeft
        {
          OFFSET -4.205974 -2.702801 -13.162535
          CHANNELS 3 Zrotation Xrotation Yrotation
          End Site
          {
            OFFSET 0 0 0
          }
        }
      }
    }
  }
  JOINT HipRight
  {
    OFFSET 5.684538 1.411630 -6.075636
    CHANNELS 3 Zrotation Xrotation Yrotation
    JOINT KneeRight
    {
      OFFSET 8.966923 -24.688911 -2.876025
      CHANNELS 3 Zrotation Xrotation Yrotation
      JOINT AnkleRight
      {
        OFFSET 3.206391 -32.473989 11.698803
        CHANNELS 3 Zrotation Xrotation Yrotation
        JOINT FootRight
        {
          OFFSET -4.495531 -2.756895 -13.149755
          CHANNELS 3 Zrotation Xrotation Yrotation
          End Site
          {
            OFFSET 0 0 0
          }
        }
      }
    }
  }
}
MOTION
Frames: 12
Frame Time: 0.033333
42.100454 69.498599 336.019326 -0.000000 0.000000 21.861930 -0.000000 0.000000 -21.861930 -0.000000 0.000000 0.000000 -0.000000 0.000000 0.000000 0.000000 0.000000 0.000000 -0.000000 0.000000 0.000000 -0.000000 0.000000 0.000000 -0.000000 0.000000 0.000000 -0.000000 0.000000 0.000000 0.000000 0.000000 0.000000 0.000000 0.000000 0.000000 -0.000000 0.000000 0.000000 -0.000000 0.000000 0.000000 -0.000000 0.000000 0.000000 -0.000000 0.000000 0.000000 0.000000 0.000000 0.000000 0.000000 0.000000 0.000000 -0.000000 0.000000 -21.861930 -0.000000 0.000000 0.000000 -0.000000 0.000000 0.000000 0.000000 0.000000 0.000000 -0.000000 0.000000 -21.861930 -0.000000 0.000000 0.000000 -0.000000 0.000000 0.000000 0.000000 0.000000 0.000000
42.214846 69.500246 335.905842 0.118759 0.041200 21.995905 -0.125546 0.006279 -21.995941 -0.000000 0.000000 0.000000 -0.000000 0.000000 0.000000 0.000000 0.000000 0.000000 -0.000000 0.000000 0.000000 -0.000000 0.000000 0.000000 -5.152715 -3.492155 0.143053 7.842161 2.634931 -1.570791 0.000000 0.000000 0.000000 0.000000 0.000000 0.000000 -1.565475 1.115904 0.634458 2.729852 -0.562501 -1.347270 0.989096 0.505566 -1.761449 -2.476512 -1.952607 3.833604 0.000000 0.000000 0.000000 0.000000 0.000000 0.000000 -0.125546 0.006279 -21.995941 -0.000000 0.000000 0.000000 -0.000000 0.000000 0.000000 0.000000 0.000000 0.000000 -0.125546 0.006279 -21.995941 -0.000000 0.000000 0.000000 -0.000000 0.000000 0.000000 0.000000 0.000000 0.000000
42.303186 69.502267 335.802057 0.201780 0.067570 22.118101 -0.212372 0.013376 -22.118196 -0.000000 0.000000 0.000000 -0.000000 0.000000 0.000000 0.000000 0.000000 0.000000 -0.000000 0.000000 0.000000 -0.000000 0.000000 0.000000 -7.803510 -5.290434 0.090428 12.432343 3.714684 -2.843704 0.000000 0.000000 0.000000 0.000000 0.000000 0.000000 -3.032969 2.055163 1.212691 5.352004 -1.257322 -2.434801 2.029623 0.803670 -2.807626 -4.265839 -3.768735 6.329547 0.000000 0.000000 0.000000 0.000000 0.000000 0.000000 -0.212372 0.013376 -22.118196 -0.000000 0.000000 0.000000 -0.000000 0.000000 0.000000 0.000000 0.000000 0.000000 -1.057823 -0.238026 -22.240180 0.687431 0.552666 0.117012 -0.000000 0.000000 0.000000 0.000000 0.000000 0.000000
42.365474 69.504663 335.707972 0.249055 0.079106 22.228666 -0.260472 0.020992 -22.228790 -0.000000 0.000000 0.000000 -0.000000 0.000000 0.000000 0.000000 0.000000 0.000000 -0.000000 0.000000 0.000000 -0.000000 0.000000 0.000000 -9.028009 -6.123074 0.032962 14.953847 4.016364 -3.663718 0.000000 0.000000 0.000000 0.000000 0.000000 0.000000 -4.388935 2.814953 1.721215 7.850345 -2.060927 -3.270385 3.177114 0.960568 -3.213853 -5.502097 -5.390406 7.628277 0.000000 0.000000 0.000000 0.000000 0.000000 0.000000 -0.260472 0.020992 -22.228790 -0.000000 0.000000 0.000000 -0.000000 0.000000 0.000000 0.000000 0.000000 0.000000 -1.345273 -0.291213 -22.382688 0.884250 0.701710 0.145925 -0.000000 0.000000 0.000000 0.000000 0.000000 0.000000
42.401711 69.507434 335.623586 0.260579 0.075807 22.327713 -0.269842 0.028872 -22.327818 -0.000000 0.000000 0.000000 -0.000000 0.000000 0.000000 0.000000 0.000000 0.000000 -0.000000 0.000000 0.000000 -0.000000 0.000000 0.000000 -9.244933 -6.279596 0.012178 15.906761 3.844519 -4.030012 0.000000 0.000000 0.000000 0.000000 0.000000 0.000000 -5.622223 3.395044 2.148347 10.215190 -2.954050 -3.863801 4.510430 1.016021 -3.005565 -6.330426 -6.802259 7.790773 0.000000 0.000000 0.000000 0.000000 0.000000 0.000000 -0.752242 0.681610 -22.331152 0.694251 -0.420463 0.008873 -0.000000 0.000000 0.000000 0.000000 0.000000 0.000000 -1.473135 -0.302934 -22.493873 0.984884 0.766849 0.156586 -0.000000 0.000000 0.000000 0.000000 0.000000 0.000000
42.411895 69.510579 335.548900 0.236347 0.057670 22.415326 -0.240480 0.036810 -22.415367 -0.000000 0.000000 0.000000 -0.000000 0.000000 0.000000 0.000000 0.000000 0.000000 -0.000000 0.000000 0.000000 -0.000000 0.000000 0.000000 -8.567428 -5.838754 0.030397 15.453456 3.278021 -3.958978 0.000000 0.000000 0.000000 0.000000 0.000000 0.000000 -6.724148 3.797131 2.484444 12.442104 -3.921794 -4.225467 6.133698 0.990503 -2.154625 -6.923658 -8.012285 6.800820 0.000000 0.000000 0.000000 0.000000 0.000000 0.000000 -0.714951 0.747320 -22.425617 0.709658 -0.475742 0.016443 -0.000000 0.000000 0.000000 0.000000 0.000000 0.000000 -1.441314 -0.274165 -22.573690 0.989536 0.748047 0.149375 -0.000000 0.000000 0.000000 0.000000 0.000000 0.000000
42.364870 69.516314 335.478707 0.138708 0.029449 22.585053 -0.139380 0.026081 -22.585057 -0.000000 0.000000 0.000000 -0.000000 0.000000 0.000000 0.000000 0.000000 0.000000 -0.000000 0.000000 0.000000 -0.214734 -0.936193 0.090774 -5.374666 -3.135142 -0.110025 9.502933 2.126570 -1.953056 0.000000 0.000000 0.000000 0.000000 0.000000 0.000000 -8.941618 4.434061 3.101317 16.198294 -5.777038 -4.523184 10.638702 0.467739 1.112714 -10.403857 -8.455542 3.177330 0.000000 0.000000 0.000000 0.000000 0.000000 0.000000 -0.139380 0.026081 -22.585057 -0.353812 -0.785272 0.024580 0.354182 0.785105 -0.029432 0.000000 0.000000 0.000000 -1.114315 -0.216790 -22.710519 0.805618 0.600402 0.119618 -0.000000 0.000000 0.000000 0.000000 0.000000 0.000000
42.268219 69.531166 335.413479 -0.007678 -0.000409 22.754122 0.007238 -0.002592 -22.754122 -0.000000 0.000000 0.000000 -0.000000 0.000000 0.000000 0.000000 0.000000 0.000000 -0.000000 0.000000 0.000000 -0.333990 -1.125482 0.137714 0.336759 1.124657 -0.144300 3.387566 -2.078457 -1.209004 0.000000 0.000000 0.000000 0.000000 0.000000 0.000000 -10.368294 4.749021 3.465252 18.161822 -7.246438 -4.288408 17.567626 0.102286 4.316217 -16.342684 -7.304026 -1.170609 0.000000 0.000000 0.000000 0.000000 0.000000 0.000000 0.007238 -0.002592 -22.754122 -0.412948 -0.775645 0.021899 0.413282 0.775467 -0.027491 0.000000 0.000000 0.000000 0.007238 -0.002592 -22.754122 -0.000000 0.000000 0.000000 -0.000000 0.000000 0.000000 0.000000 0.000000 0.000000
42.188651 69.540912 335.359456 -0.153854 -0.054707 22.726684 0.163044 -0.008980 -22.726745 -0.000000 0.000000 0.000000 -0.000000 0.000000 0.000000 0.000000 0.000000 0.000000 -0.000000 0.000000 0.000000 -0.000000 0.000000 0.000000 3.696972 -1.264105 -2.996920 0.595300 0.471423 1.462295 0.000000 0.000000 0.000000 0.000000 0.000000 0.000000 -10.828488 4.628223 3.460862 19.715837 -8.339502 -3.974042 19.706963 0.389544 6.832125 -16.589754 -8.254609 -5.085705 0.000000 0.000000 0.000000 0.000000 0.000000 0.000000 0.163044 -0.008980 -22.726745 -0.465233 -0.707055 0.016871 0.465476 0.706895 -0.022613 0.000000 0.000000 0.000000 0.163044 -0.008980 -22.726745 -0.000000 0.000000 0.000000 -0.000000 0.000000 0.000000 0.000000 0.000000 0.000000
42.123135 69.552438 335.312664 -0.281028 -0.058367 22.666624 0.281815 -0.054440 -22.666633 -0.000000 0.000000 0.000000 -0.000000 0.000000 0.000000 0.000000 0.000000 0.000000 -0.000000 0.000000 0.000000 -0.000000 0.000000 0.000000 18.817372 7.730932 -5.382777 -15.761055 -10.384258 2.174351 0.000000 0.000000 0.000000 0.000000 0.000000 0.000000 -11.177842 4.224407 3.280860 20.881429 -8.963851 -3.563947 21.762362 0.652896 9.306122 -15.871489 -8.897511 -11.522749 0.000000 0.000000 0.000000 0.000000 0.000000 0.000000 0.281815 -0.054440 -22.666633 -0.000000 0.000000 0.000000 -0.000000 0.000000 0.000000 0.000000 0.000000 0.000000 0.281815 -0.054440 -22.666633 -0.000000 0.000000 0.000000 -0.000000 0.000000 0.000000 0.000000 0.000000 0.000000
42.174397 69.538412 335.285424 -0.321998 -0.184080 22.389688 0.367841 0.047550 -22.390357 -0.000000 0.000000 0.000000 -0.000000 0.000000 0.000000 0.000000 0.000000 0.000000 -0.531904 -0.679521 0.071320 0.532786 0.678829 -0.077630 11.569852 11.267594 0.728167 -10.608027 -13.105657 -3.308991 0.000000 0.000000 0.000000 0.000000 0.000000 0.000000 -9.517889 3.135596 2.469067 19.629932 -8.479643 -2.904116 22.326497 0.764948 11.641471 -14.972845 -10.566474 -14.095394 0.000000 0.000000 0.000000 0.000000 0.000000 0.000000 0.367841 0.047550 -22.390357 -0.000000 0.000000 0.000000 -0.000000 0.000000 0.000000 0.000000 0.000000 0.000000 0.367841 0.047550 -22.390357 -0.099856 -0.933972 -0.128640 0.097772 0.934192 0.127029 0.000000 0.000000 0.000000
42.355218 69.493076 335.273815 -0.270909 -0.429974 21.787885 0.411155 0.298699 -21.789974 -0.000000 0.000000 0.000000 -0.000000 0.000000 0.000000 0.000000 0.000000 0.000000 -2.497671 -1.853821 0.208296 3.892169 3.343752 -0.899689 -3.942117 11.223776 11.419878 2.232273 -15.632691 -11.109956 0.000000 0.000000 0.000000 0.000000 0.000000 0.000000 -6.390681 1.472464 1.254384 17.420202 -7.430127 -2.128094 18.967696 0.996418 13.633965 -9.112046 -15.684650 -16.710371 0.000000 0.000000 0.000000 0.000000 0.000000 0.000000 0.411155 0.298699 -21.789974 -0.000000 0.000000 0.000000 -0.000000 0.000000 0.000000 0.000000 0.000000 0.000000 0.411155 0.298699 -21.789974 -0.322306 -1.122111 -0.229320 0.317874 1.123374 0.223047 0.000000 0.000000 0.000000
